<svg width="25" height="24" viewBox="0 0 25 24" fill="none" xmlns="http://www.w3.org/2000/svg">
<path d="M19.9443 12.3827C19.7394 11.7267 18.9454 11.3483 18.3059 11.6098C17.6649 11.8355 17.3195 12.6142 17.5698 13.2432C17.7768 13.8378 18.4742 14.2016 19.0801 14.019C19.7716 13.8539 20.1894 13.0452 19.9443 12.3827Z" fill="#3C3C43" fill-opacity="0.6" style="fill:#3C3C43;fill:color(display-p3 0.2353 0.2353 0.2627);fill-opacity:0.6;"/>
<path d="M11.7304 11.6281C12.3421 11.368 13.1097 11.7143 13.3373 12.3323C13.5722 12.9006 13.3197 13.6114 12.7731 13.8977C12.184 14.2352 11.3601 13.9781 11.0674 13.3659C10.7242 12.7377 11.0528 11.8662 11.7304 11.6281Z" fill="#3C3C43" fill-opacity="0.6" style="fill:#3C3C43;fill:color(display-p3 0.2353 0.2353 0.2627);fill-opacity:0.6;"/>
<path fill-rule="evenodd" clip-rule="evenodd" d="M6.57955 2.06648C6.74346 2.01972 6.91469 2.00511 7.08446 2C8.75662 2.00626 10.4288 2.00489 12.1009 2.00352C13.3551 2.00249 14.6092 2.00146 15.8633 2.00365C16.0711 2.00617 16.2792 2.00432 16.4873 2.00246C17.0627 1.99732 17.6384 1.99218 18.2086 2.07963C19.2835 2.16144 20.3182 2.61582 21.118 3.3339C22.122 4.29159 22.6576 5.67079 22.6745 7.04633C22.6747 8.33743 22.6746 9.62886 22.6746 10.9203C22.6744 13.5024 22.6742 16.0847 22.6767 18.665C22.6704 18.6789 22.6605 18.7018 22.6515 18.7228L22.6514 18.723C22.6457 18.7363 22.6404 18.7488 22.6364 18.7578C21.5937 19.9222 20.1916 20.7104 18.7259 21.2203C16.7509 21.8924 14.6354 22.1086 12.5594 21.9508C10.4835 21.7726 8.39137 21.2313 6.63077 20.0858C5.73071 20.4854 4.73772 20.6812 3.75205 20.6001C3.73449 20.5819 3.71711 20.5636 3.69973 20.5453C3.68236 20.5271 3.66496 20.5088 3.64741 20.4905C4.18305 19.9193 4.57893 19.1661 4.54747 18.367C4.54432 18.0999 4.39946 17.8851 4.25568 17.6718C4.19885 17.5875 4.14219 17.5035 4.09451 17.4166C3.08908 15.7021 2.6149 13.7188 2.51392 11.7464C2.41221 9.32404 2.86077 6.82498 4.09158 4.71163C4.70553 3.65605 5.55509 2.73635 6.57955 2.06648ZM15.0445 9.39855C15.0471 10.0947 15.0459 10.7911 15.0447 11.4873C15.0429 12.5423 15.0411 13.5972 15.0525 14.6516C15.1357 14.9452 15.4235 14.9261 15.6929 14.9082C15.7982 14.9013 15.9006 14.8944 15.987 14.9066C15.9818 13.0708 15.9818 11.2343 15.987 9.39855H15.0445ZM5.44094 9.46357L5.44059 9.53475C5.43919 9.82085 5.43778 10.1075 5.44386 10.3935C6.11662 10.3862 6.7897 10.3873 7.46267 10.3885C7.79911 10.389 8.13553 10.3896 8.47186 10.3891C7.9061 11.1025 7.33499 11.812 6.76386 12.5215L6.76379 12.5216C6.34361 13.0435 5.92342 13.5655 5.50533 14.0891C5.31035 14.3106 5.30633 14.6181 5.3027 14.8966L5.30264 14.9014C6.05463 14.9093 6.80685 14.9083 7.55918 14.9072C8.13337 14.9064 8.70766 14.9056 9.28191 14.9087C9.29468 14.9086 9.30768 14.9086 9.32083 14.9086C9.46365 14.9083 9.62484 14.908 9.71731 14.7809C9.82997 14.6306 9.82114 14.4442 9.81246 14.2609C9.80874 14.1823 9.80504 14.1043 9.81097 14.03C9.50802 14.03 9.20508 14.0303 8.90213 14.0307H8.90168C8.14447 14.0316 7.38725 14.0325 6.63004 14.0278C7.12323 13.4144 7.61141 12.7971 8.09962 12.1798L8.09982 12.1795L8.09992 12.1794C8.59892 11.5484 9.09796 10.9174 9.60242 10.2905C9.79414 10.0597 9.81024 9.74846 9.82048 9.46284C8.78341 9.45557 7.7467 9.45826 6.70958 9.46095H6.70941C6.28668 9.46205 5.86387 9.46314 5.44094 9.46357ZM18.3235 10.6791C17.6985 10.8113 17.1388 11.2285 16.849 11.799C16.5072 12.4455 16.5299 13.268 16.9061 13.8963C17.3854 14.7466 18.4918 15.171 19.416 14.8459C20.5041 14.5187 21.1627 13.241 20.8019 12.1664C20.5143 11.1335 19.3743 10.4446 18.3235 10.6791ZM10.5391 11.444C9.87097 12.2344 9.90829 13.5025 10.6291 14.2469C11.3052 15.0154 12.5836 15.1586 13.3973 14.5274C13.4062 14.5473 13.4147 14.5679 13.4234 14.5887C13.4727 14.7068 13.525 14.8324 13.6519 14.8839C13.7985 14.9141 13.9486 14.9114 14.0985 14.9087C14.1664 14.9074 14.2343 14.9062 14.3017 14.908C14.2981 13.5339 14.2995 12.1606 14.301 10.7872C14.1536 10.788 14.0063 10.7882 13.859 10.7883C13.7118 10.7885 13.5645 10.7887 13.4171 10.7894C13.4181 10.8238 13.42 10.8751 13.4218 10.9264C13.4236 10.9777 13.4255 11.029 13.4266 11.0634C13.2012 10.9268 12.9678 10.7982 12.7102 10.7332C11.9301 10.5104 11.0447 10.8187 10.5391 11.444Z" fill="#3C3C43" fill-opacity="0.6" style="fill:#3C3C43;fill:color(display-p3 0.2353 0.2353 0.2627);fill-opacity:0.6;"/>
</svg>
